<svg width="23" height="23" viewBox="0 0 23 23" fill="none" xmlns="http://www.w3.org/2000/svg">
<path d="M11.3857 13.7556C11.4792 13.7561 11.5718 13.7378 11.6581 13.702C11.7445 13.6661 11.8228 13.6134 11.8885 13.5469L15.1804 10.2265C15.2671 10.0928 15.3064 9.93384 15.292 9.77512C15.2776 9.6164 15.2103 9.46711 15.101 9.35119C14.9916 9.23526 14.8465 9.15941 14.6889 9.13579C14.5313 9.11217 14.3703 9.14215 14.2317 9.22092L11.3857 12.067L8.53964 9.22092C8.40109 9.14215 8.24012 9.11217 8.0825 9.13579C7.92489 9.15941 7.77978 9.23526 7.67041 9.35119C7.56105 9.46711 7.49377 9.6164 7.47937 9.77512C7.46496 9.93384 7.50425 10.0928 7.59095 10.2265L10.9113 13.5469C11.0371 13.6744 11.2067 13.7491 11.3857 13.7556Z" fill="black"/>
</svg>
