<svg width="23" height="23" viewBox="0 0 23 23" fill="none" xmlns="http://www.w3.org/2000/svg">
<path d="M11.3857 9.01293C11.4792 9.01249 11.5718 9.03073 11.6581 9.06657C11.7445 9.10241 11.8228 9.15513 11.8885 9.22164L15.1804 12.542C15.2671 12.6758 15.3064 12.8347 15.292 12.9934C15.2776 13.1522 15.2103 13.3014 15.101 13.4174C14.9916 13.5333 14.8465 13.6091 14.6889 13.6328C14.5313 13.6564 14.3703 13.6264 14.2317 13.5476L11.3857 10.7016L8.53964 13.5476C8.40109 13.6264 8.24012 13.6564 8.0825 13.6328C7.92489 13.6091 7.77978 13.5333 7.67041 13.4174C7.56105 13.3014 7.49377 13.1522 7.47937 12.9934C7.46496 12.8347 7.50425 12.6758 7.59095 12.542L10.9113 9.22164C11.0371 9.09412 11.2067 9.01946 11.3857 9.01293Z" fill="black"/>
</svg>
