<svg width="25" height="25" viewBox="0 0 25 25" fill="none" xmlns="http://www.w3.org/2000/svg">
<rect width="25" height="25" rx="8" fill="white"/>
<path d="M11.2152 12.345C10.5229 12.345 9.84625 12.1397 9.27068 11.7551C8.69511 11.3705 8.2465 10.8239 7.98159 10.1844C7.71669 9.54482 7.64738 8.84109 7.78242 8.16216C7.91747 7.48322 8.25082 6.85958 8.7403 6.3701C9.22978 5.88061 9.85342 5.54727 10.5324 5.41222C11.2113 5.27718 11.915 5.34649 12.5546 5.61139C13.1941 5.8763 13.7407 6.3249 14.1253 6.90048C14.5099 7.47605 14.7152 8.15274 14.7152 8.84497C14.7152 9.77323 14.3464 10.6635 13.69 11.3198C13.0337 11.9762 12.1434 12.345 11.2152 12.345ZM11.2152 6.38497C10.7207 6.38497 10.2374 6.53159 9.82625 6.8063C9.41512 7.081 9.09469 7.47145 8.90547 7.92826C8.71626 8.38508 8.66675 8.88775 8.76321 9.3727C8.85967 9.85765 9.09777 10.3031 9.44741 10.6527C9.79704 11.0024 10.2425 11.2405 10.7274 11.3369C11.2124 11.4334 11.7151 11.3839 12.1719 11.1947C12.6287 11.0055 13.0191 10.685 13.2938 10.2739C13.5686 9.86278 13.7152 9.37943 13.7152 8.88497C13.7152 8.55667 13.6505 8.23158 13.5249 7.92826C13.3992 7.62495 13.2151 7.34935 12.9829 7.11721C12.7508 6.88506 12.4752 6.70091 12.1719 6.57527C11.8686 6.44964 11.5435 6.38497 11.2152 6.38497ZM14.0002 12.95C11.2944 12.3407 8.46359 12.634 5.94017 13.785C5.59312 13.9508 5.3003 14.2117 5.09582 14.5375C4.89134 14.8632 4.78361 15.2404 4.78517 15.625V18.6C4.78517 18.6656 4.79811 18.7307 4.82323 18.7913C4.84836 18.852 4.88519 18.9071 4.93162 18.9535C4.97805 19 5.03317 19.0368 5.09383 19.0619C5.15449 19.087 5.21951 19.1 5.28517 19.1C5.35083 19.1 5.41585 19.087 5.47651 19.0619C5.53718 19.0368 5.5923 19 5.63873 18.9535C5.68516 18.9071 5.72199 18.852 5.74711 18.7913C5.77224 18.7307 5.78517 18.6656 5.78517 18.6V15.625C5.78082 15.4303 5.83338 15.2386 5.93641 15.0734C6.03944 14.9082 6.18846 14.7767 6.36517 14.695C7.88526 13.9929 9.54081 13.6328 11.2152 13.64C12.1533 13.6389 13.0883 13.7497 14.0002 13.97V12.95ZM14.0702 17.705H17.1402V18.405H14.0702V17.705Z" fill="black"/>
<path d="M19.585 14.735H17V15.735H19.085V19.92H12V15.735H15.15V15.945C15.15 16.0776 15.2027 16.2048 15.2964 16.2986C15.3902 16.3923 15.5174 16.445 15.65 16.445C15.7826 16.445 15.9098 16.3923 16.0036 16.2986C16.0973 16.2048 16.15 16.0776 16.15 15.945V14C16.15 13.8674 16.0973 13.7402 16.0036 13.6464C15.9098 13.5527 15.7826 13.5 15.65 13.5C15.5174 13.5 15.3902 13.5527 15.2964 13.6464C15.2027 13.7402 15.15 13.8674 15.15 14V14.735H11.5C11.3674 14.735 11.2402 14.7877 11.1464 14.8814C11.0527 14.9752 11 15.1024 11 15.235V20.42C11 20.5526 11.0527 20.6798 11.1464 20.7736C11.2402 20.8673 11.3674 20.92 11.5 20.92H19.585C19.7176 20.92 19.8448 20.8673 19.9386 20.7736C20.0323 20.6798 20.085 20.5526 20.085 20.42V15.235C20.085 15.1024 20.0323 14.9752 19.9386 14.8814C19.8448 14.7877 19.7176 14.735 19.585 14.735Z" fill="black"/>
</svg>
