<svg width="16" height="16" viewBox="0 0 16 16" fill="none" xmlns="http://www.w3.org/2000/svg">
<path d="M10.7066 1.63654C10.894 1.82406 10.9993 2.07837 10.9993 2.34354C10.9993 2.6087 10.894 2.86301 10.7066 3.05054L5.75656 8.00054L10.7066 12.9505C10.8887 13.1391 10.9895 13.3917 10.9872 13.6539C10.985 13.9161 10.8798 14.1669 10.6944 14.3524C10.509 14.5378 10.2582 14.6429 9.99596 14.6452C9.73376 14.6475 9.48116 14.5467 9.29256 14.3645L3.63556 8.70754C3.44809 8.52001 3.34277 8.2657 3.34277 8.00054C3.34277 7.73537 3.44809 7.48106 3.63556 7.29354L9.29256 1.63654C9.48009 1.44907 9.7344 1.34375 9.99956 1.34375C10.2647 1.34375 10.519 1.44907 10.7066 1.63654Z" fill="black"/>
</svg>
