<svg width="12" height="16" viewBox="0 0 12 16" fill="none" xmlns="http://www.w3.org/2000/svg">
<g filter="url(#filter0_d_1233_4032)">
<path d="M9.70754 1.63599C9.89501 1.82351 10.0003 2.07782 10.0003 2.34299C10.0003 2.60815 9.89501 2.86246 9.70754 3.04999L4.75754 7.99999L9.70754 12.95C9.88969 13.1386 9.99049 13.3912 9.98821 13.6534C9.98593 13.9156 9.88076 14.1664 9.69535 14.3518C9.50995 14.5372 9.25913 14.6424 8.99694 14.6447C8.73474 14.6469 8.48214 14.5461 8.29354 14.364L2.63654 8.70699C2.44907 8.51946 2.34375 8.26515 2.34375 7.99999C2.34375 7.73482 2.44907 7.48052 2.63654 7.29299L8.29354 1.63599C8.48106 1.44852 8.73537 1.3432 9.00054 1.3432C9.2657 1.3432 9.52001 1.44852 9.70754 1.63599Z" fill="#00A8E8"/>
</g>
<defs>
<filter id="filter0_d_1233_4032" x="0.34375" y="0.343201" width="11.6562" height="17.3015" filterUnits="userSpaceOnUse" color-interpolation-filters="sRGB">
<feFlood flood-opacity="0" result="BackgroundImageFix"/>
<feColorMatrix in="SourceAlpha" type="matrix" values="0 0 0 0 0 0 0 0 0 0 0 0 0 0 0 0 0 0 127 0" result="hardAlpha"/>
<feOffset dy="1"/>
<feGaussianBlur stdDeviation="1"/>
<feComposite in2="hardAlpha" operator="out"/>
<feColorMatrix type="matrix" values="0 0 0 0 0 0 0 0 0 0 0 0 0 0 0 0 0 0 0.05 0"/>
<feBlend mode="normal" in2="BackgroundImageFix" result="effect1_dropShadow_1233_4032"/>
<feBlend mode="normal" in="SourceGraphic" in2="effect1_dropShadow_1233_4032" result="shape"/>
</filter>
</defs>
</svg>
