<svg width="16" height="17" viewBox="0 0 16 17" fill="none" xmlns="http://www.w3.org/2000/svg">
<path d="M4.95252 8.73958H8.76204M4.95252 10.2634H10.2859M4.95252 11.7872H7.23823M12.5716 12.5491V7.21577L8.76204 3.40625H4.95252C4.54838 3.40625 4.16079 3.56679 3.87502 3.85256C3.58925 4.13833 3.42871 4.52592 3.42871 4.93006V12.5491C3.42871 12.9532 3.58925 13.3408 3.87502 13.6266C4.16079 13.9124 4.54838 14.0729 4.95252 14.0729H11.0478C11.4519 14.0729 11.8395 13.9124 12.1253 13.6266C12.411 13.3408 12.5716 12.9532 12.5716 12.5491Z" stroke="black" stroke-linecap="round" stroke-linejoin="round"/>
<path d="M8.76221 3.40625V5.69196C8.76221 6.0961 8.92275 6.48369 9.20852 6.76946C9.49429 7.05523 9.88188 7.21577 10.286 7.21577H12.5717" stroke="black" stroke-linecap="round" stroke-linejoin="round"/>
</svg>
