<svg width="44" height="43" viewBox="0 0 44 43" fill="none" xmlns="http://www.w3.org/2000/svg">
<g opacity="0.8" filter="url(#filter0_d_1036_4029)">
<path d="M6 12C6 6.47715 10.4772 2 16 2H28C33.5228 2 38 6.47715 38 12V23C38 28.5228 33.5228 33 28 33H16C10.4772 33 6 28.5228 6 23V12Z" fill="#C8C8C8"/>
</g>
<path d="M28.2487 15.582H24.4154V11.7487C24.4154 11.2404 24.2134 10.7529 23.854 10.3934C23.4945 10.034 23.007 9.83203 22.4987 9.83203C21.9904 9.83203 21.5029 10.034 21.1434 10.3934C20.784 10.7529 20.582 11.2404 20.582 11.7487L20.6501 15.582H16.7487C16.2404 15.582 15.7529 15.784 15.3934 16.1434C15.034 16.5029 14.832 16.9904 14.832 17.4987C14.832 18.007 15.034 18.4945 15.3934 18.854C15.7529 19.2134 16.2404 19.4154 16.7487 19.4154L20.6501 19.3473L20.582 23.2487C20.582 23.757 20.784 24.2445 21.1434 24.604C21.5029 24.9634 21.9904 25.1654 22.4987 25.1654C23.007 25.1654 23.4945 24.9634 23.854 24.604C24.2134 24.2445 24.4154 23.757 24.4154 23.2487V19.3473L28.2487 19.4154C28.757 19.4154 29.2445 19.2134 29.604 18.854C29.9634 18.4945 30.1654 18.007 30.1654 17.4987C30.1654 16.9904 29.9634 16.5029 29.604 16.1434C29.2445 15.784 28.757 15.582 28.2487 15.582Z" fill="white"/>
<path d="M28.2487 15.582H24.4154V11.7487C24.4154 11.2404 24.2134 10.7529 23.854 10.3934C23.4945 10.034 23.007 9.83203 22.4987 9.83203C21.9904 9.83203 21.5029 10.034 21.1434 10.3934C20.784 10.7529 20.582 11.2404 20.582 11.7487L20.6501 15.582H16.7487C16.2404 15.582 15.7529 15.784 15.3934 16.1434C15.034 16.5029 14.832 16.9904 14.832 17.4987C14.832 18.007 15.034 18.4945 15.3934 18.854C15.7529 19.2134 16.2404 19.4154 16.7487 19.4154L20.6501 19.3473L20.582 23.2487C20.582 23.757 20.784 24.2445 21.1434 24.604C21.5029 24.9634 21.9904 25.1654 22.4987 25.1654C23.007 25.1654 23.4945 24.9634 23.854 24.604C24.2134 24.2445 24.4154 23.757 24.4154 23.2487V19.3473L28.2487 19.4154C28.757 19.4154 29.2445 19.2134 29.604 18.854C29.9634 18.4945 30.1654 18.007 30.1654 17.4987C30.1654 16.9904 29.9634 16.5029 29.604 16.1434C29.2445 15.784 28.757 15.582 28.2487 15.582Z" fill="white"/>
<defs>
<filter id="filter0_d_1036_4029" x="0" y="0" width="44" height="43" filterUnits="userSpaceOnUse" color-interpolation-filters="sRGB">
<feFlood flood-opacity="0" result="BackgroundImageFix"/>
<feColorMatrix in="SourceAlpha" type="matrix" values="0 0 0 0 0 0 0 0 0 0 0 0 0 0 0 0 0 0 127 0" result="hardAlpha"/>
<feOffset dy="4"/>
<feGaussianBlur stdDeviation="3"/>
<feComposite in2="hardAlpha" operator="out"/>
<feColorMatrix type="matrix" values="0 0 0 0 0 0 0 0 0 0 0 0 0 0 0 0 0 0 0.1 0"/>
<feBlend mode="normal" in2="BackgroundImageFix" result="effect1_dropShadow_1036_4029"/>
<feBlend mode="normal" in="SourceGraphic" in2="effect1_dropShadow_1036_4029" result="shape"/>
</filter>
</defs>
</svg>
