<svg width="33" height="20" viewBox="0 0 33 20" fill="none" xmlns="http://www.w3.org/2000/svg">
<path d="M5 12.5H13C14.1189 12.5 15.195 12.9166 16.0205 13.6641L16.1816 13.8184C17.0256 14.6623 17.5 15.8065 17.5 17C17.5 17.663 17.2364 18.2987 16.7676 18.7676C16.2987 19.2364 15.663 19.5 15 19.5H3C2.41989 19.5 1.86086 19.298 1.41602 18.9336L1.23242 18.7676C0.763581 18.2987 0.5 17.663 0.5 17C0.5 15.8065 0.974446 14.6623 1.81836 13.8184C2.66227 12.9744 3.80653 12.5 5 12.5ZM9 2.5C9.87008 2.5 10.7066 2.82412 11.3486 3.40527L11.4746 3.52539C12.131 4.18177 12.5 5.07174 12.5 6C12.5 6.92826 12.131 7.81823 11.4746 8.47461C10.8182 9.13099 9.92826 9.5 9 9.5C8.07174 9.5 7.18177 9.13099 6.52539 8.47461C5.86901 7.81823 5.5 6.92826 5.5 6C5.5 5.12992 5.82412 4.29336 6.40527 3.65137L6.52539 3.52539C7.18177 2.86901 8.07174 2.5 9 2.5Z" fill="white" stroke="white"/>
<path d="M23.4332 16.2756V5.99148H26.2955V16.2756H23.4332ZM19.7188 12.5682V9.70597H30.0028V12.5682H19.7188Z" fill="white"/>
</svg>
