<svg width="12" height="12" viewBox="0 0 12 12" fill="none" xmlns="http://www.w3.org/2000/svg">
<path fill-rule="evenodd" clip-rule="evenodd" d="M5.24228 0.998047C4.56575 0.998105 3.89904 1.15995 3.29778 1.47007C2.69652 1.7802 2.17814 2.22962 1.78589 2.78083C1.39364 3.33204 1.1389 3.96906 1.04292 4.63875C0.946934 5.30844 1.01249 5.99137 1.23412 6.63056C1.45575 7.26976 1.82703 7.84669 2.31697 8.31322C2.80692 8.77974 3.40132 9.12234 4.0506 9.31242C4.69988 9.5025 5.3852 9.53456 6.04939 9.40591C6.71357 9.27727 7.33736 8.99166 7.86872 8.5729L9.69156 10.3957C9.78569 10.4867 9.91178 10.537 10.0426 10.5358C10.1735 10.5347 10.2987 10.4822 10.3913 10.3897C10.4838 10.2971 10.5363 10.1719 10.5374 10.0411C10.5386 9.91018 10.4883 9.7841 10.3973 9.68996L8.57449 7.86713C9.06764 7.24152 9.37469 6.48972 9.46051 5.69775C9.54633 4.90579 9.40745 4.10566 9.05976 3.38894C8.71208 2.67222 8.16964 2.06787 7.49452 1.64504C6.8194 1.22221 6.03888 0.997993 5.24228 0.998047ZM1.99791 5.24068C1.99791 4.38022 2.33972 3.55501 2.94816 2.94657C3.5566 2.33813 4.38182 1.99631 5.24228 1.99631C6.10274 1.99631 6.92796 2.33813 7.53639 2.94657C8.14483 3.55501 8.48665 4.38022 8.48665 5.24068C8.48665 6.10115 8.14483 6.92636 7.53639 7.5348C6.92796 8.14324 6.10274 8.48505 5.24228 8.48505C4.38182 8.48505 3.5566 8.14324 2.94816 7.5348C2.33972 6.92636 1.99791 6.10115 1.99791 5.24068Z" fill="#7D7D7D"/>
</svg>
